<svg id="Calque_1" data-name="Calque 1" xmlns="http://www.w3.org/2000/svg" xmlns:xlink="http://www.w3.org/1999/xlink" viewBox="0 0 166.5 253.5"><defs><style>.cls-1{fill:#221889;}.cls-1,.cls-5{stroke:#333;stroke-width:2px;}.cls-1,.cls-2,.cls-5{stroke-miterlimit:10;}.cls-2,.cls-3{fill:#da1f2b;}.cls-2{stroke:#fff;stroke-linecap:square;stroke-width:6px;}.cls-4{fill:#fff;}.cls-5{fill:none;}</style></defs><title>en</title><image width="480" height="480" transform="translate(110.5) scale(0.12)" xlink:href="france-icon.png"/><path class="cls-1" d="M160.5,99a60.82,60.82,0,0,1-1.19,12,59.84,59.84,0,0,1-5.15,15h0A60.53,60.53,0,0,1,108,159a62.13,62.13,0,0,1-8,.52,60.82,60.82,0,0,1-20.5-3.56l-.5-.19a60.62,60.62,0,0,1-27.44-20.51A60.21,60.21,0,0,1,40.69,111,60.82,60.82,0,0,1,39.5,99a60.21,60.21,0,0,1,10-33.4A60.65,60.65,0,0,1,79,42.25a5,5,0,0,1,.5-.18A59.61,59.61,0,0,1,91,39.17a60.72,60.72,0,0,1,9-.67,62.14,62.14,0,0,1,8,.52,59.85,59.85,0,0,1,12,2.87A60.48,60.48,0,0,1,160.21,93C160.4,95,160.5,97,160.5,99Z" transform="translate(-33.5 88)"/><path class="cls-2" d="M154.16,126h0a60.25,60.25,0,0,1-5.2,8.54L108.19,111l-7.32-4.23-10-5.77L77,93,44.73,74.36a59.58,59.58,0,0,1,4.82-8.76L91,89.53l9.87,5.7,10,5.77,17.32,10Z" transform="translate(-33.5 88)"/><path class="cls-2" d="M155.62,75.16,124.72,93l-13.85,8-10,5.77L91,112.47,51.56,135.24a59.69,59.69,0,0,1-5.32-8.47L73.55,111l17.32-10,10-5.77L108,91.11l42.93-24.79A60.68,60.68,0,0,1,155.62,75.16Z" transform="translate(-33.5 88)"/><path class="cls-3" d="M100,162.5a64,64,0,0,1-9.44-.7L88,161.42V114H38.23l-.48-2.41A64,64,0,0,1,36.5,99a63,63,0,0,1,.31-6.3l.27-2.7H88V36.59l2.56-.38a64,64,0,0,1,9.44-.7,65.4,65.4,0,0,1,8.39.54l2.61.34V90h51.93l.26,2.71c.2,2.09.3,4.2.3,6.29a64,64,0,0,1-1.25,12.59l-.48,2.41H111v47.62l-2.61.34A65.42,65.42,0,0,1,100,162.5Z" transform="translate(-33.5 88)"/><path class="cls-4" d="M100,38.5a62.14,62.14,0,0,1,8,.52V93h52.21c.19,2,.29,4,.29,6a60.82,60.82,0,0,1-1.19,12H108v48a62.13,62.13,0,0,1-8,.52,60.72,60.72,0,0,1-9-.67V111H40.69A60.82,60.82,0,0,1,39.5,99a59.66,59.66,0,0,1,.3-6H91V39.17a60.72,60.72,0,0,1,9-.67m0-6a67,67,0,0,0-9.89.74L85,34V87H34.38l-.55,5.4A66,66,0,0,0,33.5,99a67,67,0,0,0,1.31,13.18l1,4.82H85v47l5.11.77a67,67,0,0,0,9.89.74,68.41,68.41,0,0,0,8.77-.57l5.23-.68V117h50.22l1-4.82A67,67,0,0,0,166.5,99c0-2.18-.11-4.39-.32-6.58L165.66,87H114V33.75l-5.23-.68A68.42,68.42,0,0,0,100,32.5Z" transform="translate(-33.5 88)"/><path class="cls-5" d="M160.5,99a60.82,60.82,0,0,1-1.19,12,59.84,59.84,0,0,1-5.15,15h0A60.53,60.53,0,0,1,108,159a62.13,62.13,0,0,1-8,.52,60.82,60.82,0,0,1-20.5-3.56l-.5-.19a60.62,60.62,0,0,1-27.44-20.51A60.21,60.21,0,0,1,40.69,111,60.82,60.82,0,0,1,39.5,99a60.21,60.21,0,0,1,10-33.4A60.65,60.65,0,0,1,79,42.25a5,5,0,0,1,.5-.18A59.61,59.61,0,0,1,91,39.17a60.72,60.72,0,0,1,9-.67,62.14,62.14,0,0,1,8,.52,59.85,59.85,0,0,1,12,2.87A60.48,60.48,0,0,1,160.21,93C160.4,95,160.5,97,160.5,99Z" transform="translate(-33.5 88)"/></svg>