<svg id="Calque_1" data-name="Calque 1" xmlns="http://www.w3.org/2000/svg" xmlns:xlink="http://www.w3.org/1999/xlink" viewBox="0 0 161.5 248.5"><defs><style>.cls-1{fill:#3f51b5;}.cls-2{fill:#f7f7f7;}.cls-3{fill:#ff3d00;}.cls-4{fill:none;stroke:#333;stroke-miterlimit:10;stroke-width:2px;}</style></defs><title>fr</title><image width="480" height="480" transform="translate(105.5) scale(0.12)" xlink:href="france-icon.png"/><path class="cls-1" d="M79.5,42.07V155.94l-.5-.19a60.52,60.52,0,0,1,0-113.5A5,5,0,0,1,79.5,42.07Z" transform="translate(-38.5 88)"/><path class="cls-2" d="M120,41.89V156.11a60.75,60.75,0,0,1-40.5-.17l-.5-.19V42.25a5,5,0,0,1,.5-.18,60.67,60.67,0,0,1,40.5-.18Z" transform="translate(-38.5 88)"/><path class="cls-3" d="M160.5,99A60.52,60.52,0,0,1,120,156.11V41.89A60.52,60.52,0,0,1,160.5,99Z" transform="translate(-38.5 88)"/><path class="cls-4" d="M160.5,99a60.54,60.54,0,0,1-81,56.94l-.5-.19a60.52,60.52,0,0,1,0-113.5,5,5,0,0,1,.5-.18A60.5,60.5,0,0,1,160.5,99Z" transform="translate(-38.5 88)"/></svg>